<svg xmlns="http://www.w3.org/2000/svg" xmlns:xlink="http://www.w3.org/1999/xlink" width="500" zoomAndPan="magnify" viewBox="0 0 375 374.999991" height="500" preserveAspectRatio="xMidYMid meet" version="1.0"><defs><clipPath id="2714d380c6"><path d="M 80 3.269531 L 293 3.269531 L 293 315 L 80 315 Z M 80 3.269531 " clip-rule="nonzero"/></clipPath><clipPath id="72139debe9"><path d="M 159 103 L 290 103 L 290 371.519531 L 159 371.519531 Z M 159 103 " clip-rule="nonzero"/></clipPath></defs><g clip-path="url(#2714d380c6)"><path fill="#7c898b" d="M 158.574219 314.890625 C 131.304688 314.890625 106.507812 298.179688 84.867188 265.210938 C 80.019531 257.824219 82.078125 247.902344 89.464844 243.054688 C 96.855469 238.207031 106.773438 240.265625 111.621094 247.652344 C 126.96875 271.035156 142.765625 282.894531 158.574219 282.894531 C 164.769531 282.894531 169.542969 281.109375 173.589844 277.269531 C 177.445312 273.617188 179.164062 269.738281 179.164062 264.703125 C 179.164062 260.089844 177.679688 255.089844 174.753906 249.832031 C 172.71875 246.179688 165.546875 236.066406 140.414062 209.492188 C 118.035156 185.898438 103.5625 168.257812 96.183594 155.589844 C 85.773438 137.632812 80.503906 119.542969 80.503906 101.796875 C 80.503906 78.332031 88.253906 57.03125 103.539062 38.484375 C 122.941406 15.097656 149.210938 3.261719 181.65625 3.261719 C 224.777344 3.261719 261.15625 23.207031 289.765625 62.550781 C 294.964844 69.695312 293.386719 79.699219 286.242188 84.898438 C 279.09375 90.097656 269.089844 88.515625 263.894531 81.375 C 241.324219 50.339844 214.421875 35.257812 181.65625 35.257812 C 158.867188 35.257812 141.382812 42.984375 128.199219 58.875 C 117.648438 71.675781 112.503906 85.726562 112.503906 101.796875 C 112.503906 113.835938 116.320312 126.527344 123.851562 139.515625 C 127.980469 146.605469 138.253906 160.71875 163.648438 187.492188 C 192.019531 217.496094 199.527344 228.554688 202.710938 234.265625 C 208.320312 244.347656 211.160156 254.582031 211.160156 264.703125 C 211.160156 278.464844 205.785156 290.839844 195.609375 300.492188 C 185.523438 310.046875 173.0625 314.890625 158.574219 314.890625 " fill-opacity="1" fill-rule="nonzero"/></g><g clip-path="url(#72139debe9)"><path fill="#253439" d="M 175.414062 371.738281 C 166.578125 371.738281 159.417969 364.578125 159.417969 355.738281 C 159.417969 346.90625 166.578125 339.738281 175.414062 339.738281 C 199.976562 339.738281 219.378906 332.636719 234.730469 318.023438 C 249.851562 303.613281 257.207031 286.242188 257.207031 264.921875 C 257.207031 255.425781 255.457031 245.910156 252.003906 236.640625 C 248.410156 227 242.269531 216.261719 233.757812 204.730469 C 233.703125 204.652344 233.648438 204.578125 233.59375 204.496094 C 231.203125 201.140625 225.242188 193.835938 210.394531 178.121094 C 177.851562 143.777344 169.640625 132.851562 166.296875 127.628906 C 161.535156 120.183594 163.707031 110.292969 171.148438 105.527344 C 178.597656 100.769531 188.488281 102.941406 193.246094 110.382812 C 195.546875 113.972656 203.851562 124.691406 233.632812 156.128906 C 246.683594 169.945312 255.171875 179.65625 259.585938 185.84375 C 269.824219 199.730469 277.363281 213.0625 281.988281 225.46875 C 286.777344 238.328125 289.203125 251.601562 289.203125 264.921875 C 289.203125 295.042969 278.300781 320.707031 256.796875 341.1875 C 235.503906 361.464844 208.125 371.738281 175.414062 371.738281 " fill-opacity="1" fill-rule="nonzero"/></g></svg>